name C:\Users\r0593348\3dpredictsim\Results\Batchsim_tmt_linear\Pog_s1_tmt_aCst_d05_k2000_ig24_pas.mot
datacolumns 128
datarows 4
range 1.10249276 1.13556755
endheader
time	pelvis_tilt	pelvis_list	pelvis_rotation	pelvis_tx	pelvis_ty	pelvis_tz	hip_flexion_l	hip_adduction_l	hip_rotation_l	hip_flexion_r	hip_adduction_r	hip_rotation_r	knee_angle_l	knee_angle_r	ankle_angle_l	ankle_angle_r	subtalar_angle_l	subtalar_angle_r	tmt_angle_l	tmt_angle_r	mtp_angle_l	mtp_angle_r	lumbar_extension	lumbar_bending	lumbar_rotation	arm_flex_l	arm_add_l	arm_rot_l	arm_flex_r	arm_add_r	arm_rot_r	elbow_flex_l	elbow_flex_r	pro_sup_l	pro_sup_r	glut_med1_l/activation	glut_med2_l/activation	glut_med3_l/activation	glut_min1_l/activation	glut_min2_l/activation	glut_min3_l/activation	semimem_l/activation	semiten_l/activation	bifemlh_l/activation	bifemsh_l/activation	sar_l/activation	add_long_l/activation	add_brev_l/activation	add_mag1_l/activation	add_mag2_l/activation	add_mag3_l/activation	tfl_l/activation	pect_l/activation	grac_l/activation	glut_max1_l/activation	glut_max2_l/activation	glut_max3_l/activation	iliacus_l/activation	psoas_l/activation	quad_fem_l/activation	gem_l/activation	peri_l/activation	rect_fem_l/activation	vas_med_l/activation	vas_int_l/activation	vas_lat_l/activation	med_gas_l/activation	lat_gas_l/activation	soleus_l/activation	tib_post_l/activation	flex_dig_l/activation	flex_hal_l/activation	tib_ant_l/activation	per_brev_l/activation	per_long_l/activation	per_tert_l/activation	ext_dig_l/activation	ext_hal_l/activation	ercspn_l/activation	intobl_l/activation	extobl_l/activation	glut_med1_r/activation	glut_med2_r/activation	glut_med3_r/activation	glut_min1_r/activation	glut_min2_r/activation	glut_min3_r/activation	semimem_r/activation	semiten_r/activation	bifemlh_r/activation	bifemsh_r/activation	sar_r/activation	add_long_r/activation	add_brev_r/activation	add_mag1_r/activation	add_mag2_r/activation	add_mag3_r/activation	tfl_r/activation	pect_r/activation	grac_r/activation	glut_max1_r/activation	glut_max2_r/activation	glut_max3_r/activation	iliacus_r/activation	psoas_r/activation	quad_fem_r/activation	gem_r/activation	peri_r/activation	rect_fem_r/activation	vas_med_r/activation	vas_int_r/activation	vas_lat_r/activation	med_gas_r/activation	lat_gas_r/activation	soleus_r/activation	tib_post_r/activation	flex_dig_r/activation	flex_hal_r/activation	tib_ant_r/activation	per_brev_r/activation	per_long_r/activation	per_tert_r/activation	ext_dig_r/activation	ext_hal_r/activation	ercspn_r/activation	intobl_r/activation	extobl_r/activation	
          1.10249276	         -2.92246588	         -2.53952782	          6.21422722	          1.37811595	          0.85512541	         -0.00285689	        -18.46341505	         -2.43634643	          7.35341461	         31.80580706	          3.42091472	         -2.87092747	         -8.67429941	        -15.65786320	         -0.14097058	          5.83759605	         11.98023683	         -3.13779906	          0.49957503	          0.01673624	         23.46823474	         -0.10921845	         -2.06049960	          1.08267582	         -2.10623397	          9.01613931	        -13.48237605	         19.31668533	         -9.71848439	        -13.55647805	          9.61889107	         37.90930834	         11.99113351	         86.51662706	         86.51662706	          0.23833825	          0.08368072	          0.05563568	          0.28851543	          0.19037714	          0.09323838	          0.05000060	          0.05000006	          0.05000004	          0.07491685	          0.09817717	          0.12581142	          0.13122492	          0.05000818	          0.05000091	          0.05000017	          0.28762064	          0.11622649	          0.05000437	          0.05000080	          0.05000043	          0.05000031	          0.35048603	          0.59270844	          0.05000035	          0.05000033	          0.05000007	          0.22185733	          0.12810271	          0.09604432	          0.05826727	          0.28746942	          0.38864389	          0.26202929	          0.24780675	          0.26717519	          0.34153326	          0.05000000	          0.06521737	          0.15937049	          0.05000002	          0.05000000	          0.05000003	          0.05000038	          0.05000009	          0.05000003	          0.05918742	          0.05918743	          0.05000003	          0.05918746	          0.05918745	          0.05918722	          0.05000017	          0.05000009	          0.28767148	          0.05000002	          0.05000011	          0.09820011	          0.24010141	          0.13340864	          0.14931708	          0.14453161	          0.05000004	          0.07005855	          0.05000070	          0.05000010	          0.05000010	          0.16576695	          0.05653911	          0.05094027	          0.29894910	          0.19276857	          0.14264753	          0.06484654	          0.21362307	          0.20460170	          0.18017647	          0.05000000	          0.05000000	          0.05000000	          0.05000000	          0.05000008	          0.05000006	          0.64743122	          0.36745167	          0.20440355	          0.44264733	          0.61437981	          0.33223390	          0.06206924	          0.08675147	          0.09115747	
          1.11351769	         -2.91082016	         -2.63735614	          6.47227660	          1.39513273	          0.85396416	         -0.00263943	        -18.16441577	         -2.74727070	          7.15843333	         31.11189473	          3.79748490	         -2.62484106	        -10.94194315	        -15.85949346	         -1.18085993	          5.23378239	         13.01013295	         -3.64862701	          0.46296661	          0.00843010	         24.36398836	         -0.07569415	         -1.83154938	          1.32412683	         -2.19401790	          8.72575564	        -13.51098872	         19.38482069	        -10.89822144	        -13.55302467	          9.44547985	         39.15630726	         11.97255506	         86.51662706	         86.51662706	          0.20134194	          0.07069128	          0.05733535	          0.24373032	          0.16082564	          0.07876535	          0.05000067	          0.05000009	          0.05000016	          0.06328780	          0.08293755	          0.20719776	          0.23130102	          0.05919028	          0.05918769	          0.05918751	          0.24297445	          0.09818561	          0.05000056	          0.05000280	          0.05000400	          0.05918719	          0.29608145	          0.54225277	          0.05918741	          0.05918733	          0.05000030	          0.18741928	          0.13373142	          0.13757098	          0.13757094	          0.24284664	          0.32831619	          0.22135549	          0.20934067	          0.22570266	          0.28851840	          0.05000000	          0.05509395	          0.15659675	          0.05000001	          0.05000000	          0.05000002	          0.06679122	          0.05918743	          0.05000002	          0.05000000	          0.05000003	          0.14067388	          0.05000003	          0.05000003	          0.05000004	          0.05000002	          0.05000007	          0.24301735	          0.05000004	          0.05000047	          0.08295691	          0.20283143	          0.31782340	          0.22914194	          0.15243885	          0.05000024	          0.05918463	          0.08172789	          0.11030750	          0.11965869	          0.14003564	          0.05000006	          0.05000051	          0.37850666	          0.16284586	          0.12050491	          0.05918748	          0.20603394	          0.22292989	          0.18466617	          0.05439780	          0.05918774	          0.05000001	          0.05918743	          0.07006343	          0.07006305	          0.54693300	          0.39153072	          0.23070885	          0.37393691	          0.57259192	          0.28066253	          0.05243447	          0.07328537	          0.07700745	
          1.12454262	         -2.89529222	         -2.73263604	          6.69723747	          1.41234448	          0.85278074	         -0.00242635	        -17.76217132	         -3.03809671	          6.95013334	         30.25561174	          4.11215252	         -2.33934068	        -13.36967155	        -16.32262381	         -2.39497349	          4.82349521	         13.95777968	         -4.19565718	          0.41809137	         -0.00656046	         25.01690674	         -0.19209539	         -1.58908697	          1.56624853	         -2.27118117	          8.35025988	        -13.54272910	         19.37279570	        -12.05860586	        -13.55368242	          9.32638755	         40.37928562	         11.97219536	         86.51662706	         86.51662706	          0.27592897	          0.05971815	          0.05000000	          0.33510189	          0.13586131	          0.06653892	          0.06585730	          0.05000004	          0.05000003	          0.05346391	          0.07006361	          0.17503531	          0.19539709	          0.05000243	          0.05000031	          0.05000012	          0.26629705	          0.08294496	          0.05000019	          0.05000023	          0.05000012	          0.05000008	          0.25012188	          0.49907479	          0.05000001	          0.05000008	          0.05000002	          0.15832690	          0.11297282	          0.11621638	          0.11621634	          0.20515049	          0.27735293	          0.18699532	          0.17684553	          0.19066773	          0.24373281	          0.05000060	          0.11661073	          0.17073399	          0.05000007	          0.14201598	          0.05000021	          0.08264545	          0.05000000	          0.05000001	          0.27577260	          0.29053742	          0.36975336	          0.35287939	          0.21088059	          0.19127154	          0.07716858	          0.08611880	          0.20529471	          0.06651866	          0.05000063	          0.07007985	          0.17134670	          0.26848893	          0.19357318	          0.16135871	          0.05000007	          0.05000091	          0.06904179	          0.22740719	          0.18429413	          0.13088324	          0.05000008	          0.05000004	          0.31975255	          0.13756797	          0.23328020	          0.05000005	          0.17405217	          0.20596441	          0.15600128	          0.05000011	          0.05000029	          0.05180482	          0.05000000	          0.05918778	          0.05918746	          0.60165343	          0.38942566	          0.19489687	          0.63915565	          0.65308191	          0.31019795	          0.07123668	          0.08293714	          0.06505388	
          1.13556755	         -2.87791881	         -2.81803570	          6.88259316	          1.42950770	          0.85162631	         -0.00217772	        -17.23346605	         -3.30063123	          6.73930415	         29.33951914	          4.41497983	         -2.06037149	        -15.96926642	        -16.74878116	         -3.68267512	          4.54572011	         14.81717461	         -4.76700511	          0.33890208	         -0.00894491	         25.18903486	         -0.20388050	         -1.35632373	          1.79984905	         -2.33776500	          7.93465128	        -13.58005034	         19.30410800	        -13.13910885	        -13.55293879	          9.27871401	         41.54084089	         11.94821432	         86.51662706	         86.51662706	          0.23309758	          0.05044834	          0.05000001	          0.28308534	          0.11477210	          0.05621036	          0.09080739	          0.05000006	          0.05000009	          0.05000001	          0.05918794	          0.19572530	          0.16506777	          0.17296516	          0.05000302	          0.11925338	          0.22496099	          0.07006981	          0.05000010	          0.05000059	          0.05000042	          0.05000031	          0.21129643	          0.43353072	          0.05000003	          0.05000014	          0.05000003	          0.13375043	          0.09817667	          0.09817670	          0.09817664	          0.17330576	          0.23430050	          0.15796875	          0.14939449	          0.16107115	          0.20589914	          0.16603436	          0.12259009	          0.14423164	          0.25249244	          0.24404839	          0.11756807	          0.11164950	          0.05000000	          0.05000000	          0.40492756	          0.46247776	          0.53856808	          0.29810414	          0.28622703	          0.42968006	          0.07676496	          0.11915521	          0.17342761	          0.05918771	          0.05000008	          0.05920164	          0.14474924	          0.22681295	          0.23656342	          0.19069746	          0.05000005	          0.05000492	          0.12071567	          0.31419752	          0.23916274	          0.19037610	          0.05000002	          0.05000002	          0.27011861	          0.11621386	          0.26650980	          0.05000000	          0.24164769	          0.28186560	          0.21806079	          0.05000000	          0.05000000	          0.05000000	          0.05000000	          0.05000032	          0.05000006	          0.73801355	          0.32897661	          0.16464378	          0.58257185	          0.65121094	          0.45706850	          0.09595255	          0.07006313	          0.05495582	
